<svg xmlns="http://www.w3.org/2000/svg" version="1.1" xmlns:xlink="http://www.w3.org/1999/xlink" xmlns:svgjs="http://svgjs.com/svgjs" width="2000" height="1700" preserveAspectRatio="none" viewBox="0 0 2000 1700"><g mask="url(&quot;#SvgjsMask1300&quot;)" fill="none"><rect width="2000" height="1700" x="0" y="0" fill="rgba(39, 39, 42, 1)"></rect><path d="M1275 317.33C1090.71 317.33 871.25 328.76 871.25 425C871.25 544.09 1126.06 748 1275 748C1371.35 748 1361.83 577.34 1361.83 425C1361.83 362 1336 317.33 1275 317.33" stroke="rgba(215, 215, 210, 0.2)" stroke-width="2"></path><path d="M200 850C100.73 797.11 41.13 834.38 0 746.97C-58.87 621.88 0 585.99 0 425C0 212.5 -106.25 106.25 0 0C106.25 -106.25 212.5 0 425 0C637.5 0 637.5 0 850 0C1062.5 0 1062.5 0 1275 0C1487.5 0 1487.5 0 1700 0C1912.5 0 2018.75 -106.25 2125 0C2231.25 106.25 2125 212.5 2125 425C2125 637.5 2125 637.5 2125 850C2125 1062.5 2125 1062.5 2125 1275C2125 1487.5 2231.25 1593.75 2125 1700C2018.75 1806.25 1912.5 1700 1700 1700C1487.5 1700 1487.5 1700 1275 1700C1075.78 1700 1070.19 1712.91 876.56 1700C857.69 1698.74 861.47 1671.67 850 1671.67C840.47 1671.67 850.07 1698.97 834.55 1700C637.57 1713.13 629.78 1700 425 1700C212.5 1700 109.12 1803.38 0 1700C-103.38 1602.06 -101.88 1369.37 0 1297.37C110.62 1219.2 222.9 1407.06 425 1399.67C528.9 1395.87 612 1357.64 612 1275C612 1144.5 544.55 1096.71 425 973.39C338.55 884.21 313.23 910.32 200 850" stroke="rgba(215, 215, 210, 0.2)" stroke-width="2"></path><path d="M1275 1062.5C1208.28 1062.5 1200 1177.82 1200 1275C1200 1319.49 1228.72 1345.83 1275 1345.83C1393.72 1345.83 1530 1337.84 1530 1275C1530 1196.18 1373.28 1062.5 1275 1062.5" stroke="rgba(215, 215, 210, 0.2)" stroke-width="2"></path><path d="M0 425C-98.34 268.67 -106.25 106.25 0 0C106.25 -106.25 212.5 0 425 0C610.94 0 750.14 -95.51 796.88 0C854.13 116.99 741.4 228.02 632.98 425C555.46 565.84 550.84 675.64 425 675.64C234.35 675.64 114.16 606.49 0 425" stroke="rgba(215, 215, 210, 0.2)" stroke-width="2"></path><path d="M1275 175.67C1124.85 59.17 928.29 46.42 928.29 0C928.29 -41.41 1101.64 0 1275 0C1487.5 0 1487.5 0 1700 0C1912.5 0 2018.75 -106.25 2125 0C2231.25 106.25 2125 212.5 2125 425C2125 597.02 2219.98 697.45 2125 769.05C2007.48 857.64 1869.14 835.06 1700 745.38C1544.68 663.03 1592.87 581.56 1476.08 425C1380.37 296.7 1398.74 271.67 1275 175.67" stroke="rgba(215, 215, 210, 0.2)" stroke-width="2"></path><path d="M824.5 1275C824.5 1065.62 834.27 850 850 850C865.77 850 887.5 1068.66 887.5 1275C887.5 1302.41 866.8 1317.5 850 1317.5C835.3 1317.5 824.5 1299.37 824.5 1275" stroke="rgba(215, 215, 210, 0.2)" stroke-width="2"></path><path d="M1962.5 1275C1962.5 1136.83 2081.1 1011.9 2125 1011.9C2162.35 1011.9 2125 1143.45 2125 1275C2125 1472.32 2164.04 1669.64 2125 1669.64C2082.79 1669.64 1962.5 1465.7 1962.5 1275" stroke="rgba(215, 215, 210, 0.2)" stroke-width="2"></path><path d="M85 1700C85 1658.38 262.81 1541.33 425 1541.33C540.99 1541.33 641.36 1656.08 641.36 1700C641.36 1735.42 533.18 1700 425 1700C255 1700 85 1737.72 85 1700" stroke="rgba(215, 215, 210, 0.2)" stroke-width="2"></path><path d="M1208.59 1700C1208.59 1683.11 1233.71 1640.97 1275 1640.97C1418.7 1640.97 1578.57 1685.11 1578.57 1700C1578.57 1714.62 1426.78 1700 1275 1700C1241.8 1700 1208.59 1712.62 1208.59 1700" stroke="rgba(215, 215, 210, 0.2)" stroke-width="2"></path><path d="M425 392.31C326.14 392.31 216.84 133.56 216.84 0C216.84 -62.6 320.92 0 425 0C516.07 0 607.14 -58.12 607.14 0C607.14 138.03 521.29 392.31 425 392.31" stroke="rgba(215, 215, 210, 0.2)" stroke-width="2"></path><path d="M1275 34C1238.21 34 1207.89 8.98 1207.89 0C1207.89 -8.02 1241.45 0 1275 0C1457.14 0 1639.29 -8.48 1639.29 0C1639.29 8.52 1453.91 34 1275 34" stroke="rgba(215, 215, 210, 0.2)" stroke-width="2"></path><path d="M1590.32 425C1590.32 230.62 1639.51 217.58 1700 17C1703.59 5.08 1706.12 0.49 1718.48 0C1918.62 -8.01 2025.63 -103.89 2125 0C2228.89 108.61 2125 212.5 2125 425C2125 470.54 2162.13 502.36 2125 516.07C1949.63 580.82 1884.99 613.43 1700 581.92C1617.65 567.89 1590.32 513.08 1590.32 425" stroke="rgba(215, 215, 210, 0.2)" stroke-width="2"></path><path d="M388.57 1700C388.57 1695.54 407.62 1683 425 1683C437.43 1683 448.18 1695.29 448.18 1700C448.18 1703.79 436.59 1700 425 1700C406.78 1700 388.57 1704.04 388.57 1700" stroke="rgba(215, 215, 210, 0.2)" stroke-width="2"></path></g><defs><mask id="SvgjsMask1300"><rect width="2000" height="1700" fill="#ffffff"></rect></mask></defs></svg>